<svg width="24" height="25" viewBox="0 0 24 25" fill="none" xmlns="http://www.w3.org/2000/svg">
<mask id="mask0_48_19" style="mask-type:alpha" maskUnits="userSpaceOnUse" x="0" y="0" width="24" height="25">
<rect y="0.5" width="24" height="24" fill="#C4C4C4"/>
</mask>
<g mask="url(#mask0_48_19)">
<path d="M16 11.5C16.2833 11.5 16.5207 11.404 16.712 11.212C16.904 11.0207 17 10.7833 17 10.5C17 10.2167 16.904 9.979 16.712 9.787C16.5207 9.59567 16.2833 9.5 16 9.5C15.7167 9.5 15.4793 9.59567 15.288 9.787C15.096 9.979 15 10.2167 15 10.5C15 10.7833 15.096 11.0207 15.288 11.212C15.4793 11.404 15.7167 11.5 16 11.5ZM8 9.5H13V7.5H8V9.5ZM4.5 21.5C4 19.85 3.59167 18.4333 3.275 17.25C2.95833 16.0667 2.70433 15.0373 2.513 14.162C2.321 13.2873 2.18733 12.525 2.112 11.875C2.03733 11.225 2 10.6 2 10C2 8.46667 2.53333 7.16667 3.6 6.1C4.66667 5.03333 5.96667 4.5 7.5 4.5H12.5C12.95 3.9 13.521 3.41667 14.213 3.05C14.9043 2.68333 15.6667 2.5 16.5 2.5C16.9167 2.5 17.2707 2.646 17.562 2.938C17.854 3.22933 18 3.58333 18 4C18 4.1 17.9873 4.2 17.962 4.3C17.9373 4.4 17.9083 4.49167 17.875 4.575C17.8083 4.75833 17.746 4.94167 17.688 5.125C17.6293 5.30833 17.5833 5.50833 17.55 5.725L19.825 8H22V14.975L19.175 15.9L17.5 21.5H12V19.5H10V21.5H4.5Z" fill="white"/>
</g>
</svg>
