<svg width="300" height="215" viewBox="0 0 300 215" fill="none" xmlns="http://www.w3.org/2000/svg">
<path d="M239.169 101.229L279.72 116.567C280.52 116.869 280.923 117.763 280.621 118.563L265.283 159.114C264.981 159.914 264.087 160.317 263.287 160.015L222.736 144.677C221.936 144.375 221.533 143.481 221.836 142.681L237.173 102.13C237.475 101.33 238.369 100.927 239.169 101.229Z" stroke="white" stroke-width="5.16129" stroke-linejoin="round"/>
<path d="M131.826 68.4517L158.645 22L185.464 68.4517H131.826Z" stroke="white" stroke-width="5.16129"/>
<circle cx="244.839" cy="49.3549" r="25.8065" stroke="white" stroke-width="5.16129"/>
<line x1="2.06452" y1="-2.06452" x2="61.5205" y2="-2.06452" transform="matrix(-0.155094 -0.9879 0.986492 -0.163807 36.4348 75.8157)" stroke="white" stroke-width="4.12903" stroke-linecap="round"/>
<line x1="2.58065" y1="-2.58065" x2="59.3345" y2="-2.58065" transform="matrix(0.986492 -0.163807 0.155094 0.9879 33.0204 80.6797)" stroke="white" stroke-width="5.16129" stroke-linecap="round"/>
<line x1="2.58065" y1="-2.58065" x2="11.1783" y2="-2.58065" transform="matrix(-0.986492 0.163807 -0.155094 -0.9879 26.5731 13.0001)" stroke="white" stroke-width="5.16129" stroke-linecap="round"/>
<line x1="2.06452" y1="-2.06452" x2="12.0655" y2="-2.06452" transform="matrix(-0.155094 -0.9879 0.986492 -0.163807 95.6332 80.309)" stroke="white" stroke-width="4.12903" stroke-linecap="round"/>
<line x1="2.06452" y1="-2.06452" x2="12.0655" y2="-2.06452" transform="matrix(-0.155094 -0.9879 0.986492 -0.163807 42.6984 89.0988)" stroke="white" stroke-width="4.12903" stroke-linecap="round"/>
<line x1="2.06452" y1="-2.06452" x2="12.0655" y2="-2.06452" transform="matrix(-0.155094 -0.9879 0.986492 -0.163807 60.3433 86.1688)" stroke="white" stroke-width="4.12903" stroke-linecap="round"/>
<line x1="2.06452" y1="-2.06452" x2="12.0655" y2="-2.06452" transform="matrix(-0.155094 -0.9879 0.986492 -0.163807 77.9883 83.2389)" stroke="white" stroke-width="4.12903" stroke-linecap="round"/>
<line x1="2.58065" y1="-2.58065" x2="11.1783" y2="-2.58065" transform="matrix(-0.986492 0.163807 -0.155094 -0.9879 35.12 67.4404)" stroke="white" stroke-width="5.16129" stroke-linecap="round"/>
<line x1="2.58065" y1="-2.58065" x2="11.1783" y2="-2.58065" transform="matrix(-0.986492 0.163807 -0.155094 -0.9879 32.271 49.2936)" stroke="white" stroke-width="5.16129" stroke-linecap="round"/>
<line x1="2.58065" y1="-2.58065" x2="11.1783" y2="-2.58065" transform="matrix(-0.986492 0.163807 -0.155094 -0.9879 29.422 31.1469)" stroke="white" stroke-width="5.16129" stroke-linecap="round"/>
<path d="M38.9303 73.9692C39.4145 77.053 37.9839 79.8556 35.735 80.229C33.4862 80.6024 31.2706 78.4053 30.7865 75.3215C30.3024 72.2378 31.733 69.4352 33.9818 69.0618C33.3915 74.1728 33.9394 77.6626 38.9303 73.9692Z" fill="white"/>
<path d="M40.3704 65.4004L53.4188 46.4983" stroke="white" stroke-width="4.12903" stroke-linecap="round"/>
<path d="M62.7041 53.8146L72.8724 38.7452L83.0407 23.6758" stroke="white" stroke-width="4.12903" stroke-linecap="round"/>
<line x1="2.06452" y1="-2.06452" x2="13.7657" y2="-2.06452" transform="matrix(0.80288 0.596141 -0.574566 0.818458 50.1353 47.7596)" stroke="white" stroke-width="4.12903" stroke-linecap="round"/>
<path d="M87.5029 107.605L187.588 124.89C190.678 125.424 192.75 128.361 192.216 131.451L185.189 172.139C184.656 175.229 181.718 177.301 178.628 176.768L78.4699 159.47C77.1674 159.245 75.9842 158.573 75.1244 157.569L54.4832 133.473C52.1941 130.801 52.862 126.711 55.8824 124.906L83.6241 108.327C84.7892 107.63 86.1653 107.374 87.5029 107.605Z" stroke="white" stroke-width="3.09677"/>
<path d="M108.852 135.886L108.333 138.891L97.8371 137.079L98.3561 134.073L108.852 135.886ZM110.155 149.848L110.602 147.259L120.045 140.343C121.057 139.589 121.898 138.921 122.57 138.338C123.251 137.75 123.783 137.171 124.167 136.602C124.551 136.034 124.803 135.403 124.923 134.709C125.059 133.923 124.991 133.213 124.719 132.579C124.449 131.937 124.021 131.407 123.435 130.988C122.85 130.562 122.156 130.279 121.355 130.141C120.507 129.995 119.738 130.04 119.046 130.278C118.354 130.515 117.784 130.921 117.336 131.494C116.888 132.068 116.59 132.778 116.444 133.626L113.034 133.037C113.283 131.596 113.832 130.393 114.681 129.429C115.53 128.464 116.584 127.785 117.842 127.392C119.102 126.99 120.468 126.916 121.939 127.171C123.427 127.428 124.685 127.95 125.716 128.739C126.755 129.522 127.507 130.477 127.971 131.605C128.436 132.725 128.559 133.921 128.339 135.192C128.187 136.071 127.873 136.901 127.397 137.684C126.928 138.468 126.2 139.306 125.213 140.199C124.227 141.085 122.887 142.135 121.193 143.35L115.638 147.462L115.608 147.635L126.265 149.476L125.736 152.539L110.155 149.848ZM137.875 154.969C136.426 154.718 135.172 154.216 134.112 153.462C133.061 152.701 132.277 151.772 131.76 150.675C131.243 149.578 131.07 148.397 131.241 147.133L134.709 147.732C134.618 148.764 134.924 149.678 135.628 150.474C136.332 151.27 137.254 151.766 138.394 151.963C139.303 152.12 140.145 152.051 140.918 151.756C141.7 151.455 142.355 150.969 142.884 150.298C143.42 149.629 143.77 148.82 143.934 147.873C144.1 146.909 144.04 146.014 143.755 145.187C143.469 144.36 142.997 143.668 142.34 143.11C141.69 142.553 140.896 142.19 139.957 142.02C139.24 141.896 138.498 141.895 137.731 142.016C136.964 142.138 136.323 142.36 135.807 142.684L132.619 141.633L136.009 129.934L149.024 132.182L148.495 135.245L138.45 133.51L136.555 140.004L136.694 140.028C137.233 139.66 137.911 139.393 138.725 139.224C139.548 139.056 140.398 139.048 141.277 139.2C142.718 139.449 143.942 140.014 144.948 140.894C145.963 141.775 146.691 142.865 147.133 144.164C147.585 145.456 147.674 146.868 147.402 148.4C147.145 149.935 146.562 151.243 145.653 152.324C144.752 153.406 143.625 154.188 142.272 154.668C140.928 155.143 139.463 155.243 137.875 154.969ZM163.425 154.477L163.641 153.228C163.795 152.334 164.121 151.55 164.619 150.874C165.126 150.191 165.776 149.689 166.57 149.365C167.373 149.036 168.287 148.96 169.312 149.137C170.36 149.318 171.199 149.693 171.831 150.262C172.463 150.832 172.895 151.521 173.129 152.331C173.369 153.143 173.413 153.995 173.258 154.889L173.043 156.138C172.888 157.032 172.561 157.82 172.062 158.504C171.565 159.18 170.918 159.683 170.123 160.014C169.337 160.339 168.428 160.412 167.395 160.233C166.355 160.054 165.515 159.679 164.875 159.108C164.237 158.529 163.797 157.838 163.555 157.035C163.314 156.223 163.271 155.371 163.425 154.477ZM166.334 153.694L166.119 154.942C166.004 155.605 166.058 156.233 166.281 156.827C166.504 157.421 167.008 157.786 167.794 157.922C168.573 158.056 169.163 157.88 169.564 157.394C169.965 156.908 170.223 156.333 170.338 155.671L170.553 154.422C170.668 153.759 170.621 153.132 170.414 152.541C170.214 151.951 169.714 151.587 168.912 151.448C168.142 151.315 167.548 151.491 167.131 151.974C166.714 152.458 166.449 153.031 166.334 153.694ZM153.859 138.873L154.075 137.625C154.229 136.731 154.556 135.942 155.055 135.259C155.561 134.576 156.212 134.074 157.006 133.75C157.807 133.429 158.72 133.356 159.745 133.533C160.793 133.714 161.633 134.089 162.265 134.659C162.897 135.228 163.329 135.918 163.562 136.728C163.795 137.538 163.835 138.39 163.68 139.284L163.465 140.532C163.31 141.426 162.984 142.215 162.485 142.899C161.995 143.576 161.352 144.08 160.557 144.411C159.771 144.735 158.861 144.808 157.829 144.63C156.781 144.449 155.937 144.073 155.298 143.502C154.667 142.925 154.231 142.235 153.989 141.431C153.748 140.62 153.705 139.767 153.859 138.873ZM156.78 138.092L156.564 139.34C156.45 140.003 156.5 140.631 156.715 141.224C156.938 141.818 157.442 142.182 158.228 142.318C158.999 142.451 159.585 142.275 159.986 141.788C160.395 141.304 160.657 140.73 160.771 140.067L160.987 138.819C161.102 138.156 161.055 137.529 160.848 136.938C160.64 136.346 160.14 135.982 159.346 135.845C158.575 135.712 157.982 135.887 157.565 136.371C157.156 136.856 156.894 137.429 156.78 138.092ZM151.851 157.049L172.215 136.187L174.977 136.664L154.614 157.526L151.851 157.049Z" fill="white"/>
<circle cx="78.933" cy="132.314" r="6.19355" transform="rotate(9.79849 78.933 132.314)" stroke="white" stroke-width="3.09677"/>
<line x1="77.9159" y1="132.138" x2="39.2623" y2="125.463" stroke="white" stroke-width="3.09677" stroke-linecap="round"/>
</svg>
