<svg width="24" height="24" viewBox="0 0 24 24" fill="none" xmlns="http://www.w3.org/2000/svg">
<mask id="mask0_61_102" style="mask-type:alpha" maskUnits="userSpaceOnUse" x="0" y="0" width="24" height="24">
<rect width="24" height="24" fill="#C4C4C4"/>
</mask>
<g mask="url(#mask0_61_102)">
<path d="M4 21V11.625L2.2 13L1 11.4L4 9.1V6H6V7.575L12 3L23 11.4L21.8 12.975L20 11.625V21H13V15H11V21H4ZM4 5C4 4.16667 4.29167 3.45833 4.875 2.875C5.45833 2.29167 6.16667 2 7 2C7.28333 2 7.521 1.904 7.713 1.712C7.90433 1.52067 8 1.28333 8 1H10C10 1.83333 9.70833 2.54167 9.125 3.125C8.54167 3.70833 7.83333 4 7 4C6.71667 4 6.479 4.09567 6.287 4.287C6.09567 4.479 6 4.71667 6 5H4Z" fill="white"/>
</g>
</svg>
